<svg xmlns="http://www.w3.org/2000/svg" xmlns:xlink="http://www.w3.org/1999/xlink" version="1.1" x="0px" y="0px" viewBox="0 0 64 80" style="enable-background:new 0 0 64 64;" xml:space="preserve"><path d="M61.535,17.07c-0.892-2.83-3.705-4.53-6.535-3.961c-2.797-0.561-5.594,1.103-6.531,3.957  c-0.727,0.831-1.197,1.848-1.379,2.935h-8.27l-3-15H25v2h9.181l2.6,13H26v7.556c-0.383,0.223-0.722,0.506-1.011,0.839  C23.762,26.365,21.54,25,19,25h-3v3c0,1.958,0.81,3.728,2.111,5H15c-1.654,0-3,1.346-3,3c0,0.351,0.061,0.687,0.171,1H11  c-1.654,0-3,1.346-3,3c0,0.537,0.153,1.034,0.401,1.471C7.562,42.003,7,42.935,7,44c0,0.395,0.081,0.77,0.22,1.116  C5.945,45.461,5,46.617,5,48c0,0.395,0.081,0.77,0.22,1.116C3.945,49.461,3,50.617,3,52c0,0.352,0.072,0.686,0.184,1H3  c-1.103,0-2,0.897-2,2v2c0,1.103,0.897,2,2,2h0.219l0.999,4h45.95c1.566,0,2.852-1.176,2.988-2.736l2.756-31.274  C55.971,28.991,56.031,29,56.089,29c2.41,0,4.627-1.582,5.442-4.065C63.499,22.687,63.501,19.32,61.535,17.07z M60.462,22.999L57,21  l3.462-1.998C61.164,20.226,61.164,21.775,60.462,22.999z M59.457,17.273L56,19.268v-4.262C57.456,14.97,58.81,15.845,59.457,17.273  z M54,15.007v4.261l-3.461-1.998C51.162,15.86,52.529,14.973,54,15.007z M49.537,19.001L51.268,20h-2.127  C49.23,19.65,49.357,19.312,49.537,19.001z M28,22h26v5.868h0.004v0.044l-0.16,1.812C52.977,29.258,52.001,29,51,29  c-2.088,0-3.928,1.073-5.003,2.686C44.921,30.069,43.084,29,41,29c-2.086,0-3.924,1.071-5,2.69c-0.996-1.5-2.648-2.524-4.544-2.667  C30.766,27.821,29.483,27,28,27V22z M31.986,31.138c1.157,0.296,2.107,1.092,2.613,2.148C34.094,33.114,33.562,33,33,33h-1.556  C31.766,32.447,31.963,31.817,31.986,31.138z M37,35c0-2.206,1.794-4,4-4c2.205,0,3.998,1.793,4,3.997l-0.425,11.488  c-0.393-0.666-1.032-1.162-1.795-1.369C42.919,44.77,43,44.395,43,44c0-1.065-0.562-1.997-1.401-2.529  C41.847,41.034,42,40.537,42,40c0-1.654-1.346-3-3-3h-1.101c-0.152-0.743-0.482-1.416-0.924-2H37z M38,39h1c0.552,0,1,0.449,1,1  s-0.448,1-1,1h-1V39z M38,43h2c0.552,0,1,0.449,1,1s-0.448,1-1,1h-2V43z M38,47h4c0.552,0,1,0.449,1,1s-0.448,1-1,1h-4V47z M38,51h6  c0.552,0,1,0.449,1,1s-0.448,1-1,1h-6V51z M28,29c1.103,0,2,0.897,2,2s-0.897,2-2,2s-2-0.897-2-2S26.897,29,28,29z M18,28v-1h1  c2.757,0,5,2.243,5,5v1h-1C20.243,33,18,30.757,18,28z M15,35h8h3h7c1.654,0,3,1.346,3,3v15c0,0.551-0.448,1-1,1s-1-0.449-1-1V40  c0-1.654-1.346-3-3-3s-3,1.346-3,3v5c0,0.551-0.448,1-1,1s-1-0.449-1-1v-8H15c-0.552,0-1-0.449-1-1S14.448,35,15,35z M32,45h-2v-2h2  V45z M32,41h-2v-1c0-0.551,0.448-1,1-1s1,0.449,1,1V41z M11,39h13v2H11c-0.552,0-1-0.449-1-1S10.448,39,11,39z M8,47h11v-2h-9  c-0.552,0-1-0.449-1-1s0.448-1,1-1h14v2h-3v2h3.78c0.549,0.609,1.337,1,2.22,1s1.67-0.391,2.22-1H32v2H8c-0.552,0-1-0.449-1-1  S7.448,47,8,47z M3,55h24v-2H6c-0.552,0-1-0.449-1-1s0.448-1,1-1h26v2h-3v2h3.78c0.549,0.609,1.337,1,2.22,1s1.67-0.391,2.22-1H47v2  H3V55z M5.281,59H44.72l-0.5,2H5.781L5.281,59z M51.165,60.088C51.119,60.608,50.691,61,50.169,61H46.28l0.5-2H47  c1.103,0,2-0.897,2-2v-2c0-1.103-0.897-2-2-2h-0.184C46.928,52.686,47,52.352,47,52c0-0.649-0.212-1.247-0.564-1.738L47,35  c0-2.206,1.794-4,4-4c0.98,0,1.913,0.38,2.641,1.025L51.165,60.088z M56,26.993v-4.261l3.461,1.998  C58.839,26.14,57.471,27.027,56,26.993z"/><text x="0" y="79" fill="#000000" font-size="5px" font-weight="bold" font-family="'Helvetica Neue', Helvetica, Arial-Unicode, Arial, Sans-serif">Created by Eucalyp</text><text x="0" y="84" fill="#000000" font-size="5px" font-weight="bold" font-family="'Helvetica Neue', Helvetica, Arial-Unicode, Arial, Sans-serif">from the Noun Project</text></svg>