<svg xmlns="http://www.w3.org/2000/svg" xmlns:xlink="http://www.w3.org/1999/xlink" version="1.1" x="0px" y="0px" viewBox="0 0 100 125" enable-background="new 0 0 100 100" xml:space="preserve"><path fill="#000000" d="M55.76,24.877c0.097-0.024,0.195-0.045,0.292-0.071c0.103-0.029,0.205-0.061,0.311-0.089L55.76,24.877z   M73.546,83.149c-0.015-0.041-0.028-0.077-0.043-0.118l-4.977-17.982c-0.159-1.413-0.274-2.919-0.353-4.59  c-0.709-14.929,1.002-20.643-6.297-35.689c-0.569-0.866-3.175-0.638-5.825,0.036c-2.628,0.739-4.983,1.839-5.046,2.871  c1.185,16.681,5.513,20.779,12.348,34.069c0.988,1.922,1.822,3.624,2.546,5.249l4.693,16.972c0.558,3.691-8.007,4.379-7.594,5.92  c0.099,0.238,5.056-1.019,10.011-2.41c4.567-1.282,9.218-2.397,9.089-2.693C81.636,83.056,74.794,86.799,73.546,83.149z   M63.905,56.734l-0.633-1.075c-1.198-3.061-4.669-8.919-6.349-12.74c-1.739-3.956-2.725-9.189-2.863-13.38  c0,0,2.98-1.81,6.606-1.795c1.938,3.403,4.312,10.666,4.468,15.222l-4.752-0.218L63.905,56.734z M43.995,24.542  c0.098,0.022,0.193,0.049,0.289,0.073c0.107,0.024,0.211,0.044,0.315,0.067L43.995,24.542z M54.95,21.448  c0.28,0.231,0.623,0.343,0.961,0.343c0.445,0,0.884-0.192,1.186-0.562l4.984-6.123c0.533-0.654,0.435-1.616-0.218-2.148  c-0.654-0.532-1.619-0.431-2.148,0.219L54.728,19.3C54.199,19.955,54.294,20.916,54.95,21.448z M52.104,18.778V8.981  c0-0.844-0.683-1.526-1.528-1.526c-0.842,0-1.524,0.683-1.524,1.526v9.797c0,0.844,0.683,1.526,1.524,1.526  C51.421,20.304,52.104,19.622,52.104,18.778z M38.234,61.782c6.389-13.509,10.581-17.75,11.213-34.46  c-0.101-1.033-2.501-2.056-5.164-2.707c-2.665-0.581-5.258-0.719-5.802,0.162c-6.79,15.282-4.895,20.935-5.104,35.879  c-0.029,2.05-0.092,3.831-0.208,5.49l-3.813,16.92c-0.01,0.028-0.018,0.055-0.027,0.083c-1.126,3.689-8.66,0.54-9.062,2.279  c-0.117,0.301,4.567,1.261,9.173,2.389c4.997,1.229,9.995,2.319,10.085,2.078c0.359-1.549-7.719-1.838-7.336-5.51l4.091-18.142  C36.834,64.852,37.473,63.393,38.234,61.782z M36.043,42.887c0-4.672,2.188-12.192,4.054-15.744c3.715-0.14,6.833,1.612,6.833,1.612  c0,4.299-0.853,9.854-2.498,13.969l-5.039-0.07c-0.631,1.401-3.195,12.194-3.616,15.206C35.99,55.269,35.918,45.807,36.043,42.887z   M44.027,21.581c0.304,0.37,0.743,0.56,1.187,0.56c0.339,0,0.68-0.113,0.963-0.344c0.651-0.535,0.748-1.496,0.217-2.147  l-5.512-6.736c-0.537-0.654-1.496-0.748-2.149-0.216c-0.649,0.536-0.748,1.497-0.214,2.148L44.027,21.581z"/><text x="0" y="115" fill="#000000" font-size="5px" font-weight="bold" font-family="'Helvetica Neue', Helvetica, Arial-Unicode, Arial, Sans-serif">Created by Rutmer Zijlstra</text><text x="0" y="120" fill="#000000" font-size="5px" font-weight="bold" font-family="'Helvetica Neue', Helvetica, Arial-Unicode, Arial, Sans-serif">from the Noun Project</text></svg>