<svg xmlns="http://www.w3.org/2000/svg" xmlns:xlink="http://www.w3.org/1999/xlink" version="1.1" x="0px" y="0px" viewBox="0 0 65 81.25" enable-background="new 0 0 65 65" xml:space="preserve"><g><path d="M8.4531507,9.5617847l23.6884995,10.3789005l-2.0918007,3.8764992   c-2.3428001,4.3418007-2.9315834,9.1977997-1.6317997,13.7695007l1.4120998,4.8809013   c0.0702991,0.247097,0.0438995,0.5092964-0.075201,0.7377968l-7.1366825,13.7363014   c-0.3321171,0.6503983-0.506916,1.3613014-0.506916,2.0556984c0,2.4824028,2.0194988,4.5019035,4.5019989,4.5019035   c1.6933002,0,3.2236004-0.9326019,3.9922009-2.430603l6.8309994-13.2066002   c0.8125-1.5463982,1.1464996-3.2972984,0.964901-5.0682983l-0.2256012-2.1035995l6.7265015,5.8505974l5.9316978,14.1133003   c0.360302,0.8428001,0.9560013,1.5562019,1.7118988,2.0562019c0.7616997,0.516098,1.6543198,0.7890015,2.5810013,0.7890015   c1.5918007,0,3.0577011-0.7993011,3.9189987-2.1377029c0.8633194-1.3402977,0.9844017-3.0072975,0.3232002-4.4618988   l-5.5419998-12.1176987c-0.5262985-1.1508026-1.2372971-2.1893997-2.1122971-3.0869026l-7.4531021-7.6581993l3.8590012-8.8999004   c0.0177002,0.0009003,0.0332985,0.0093002,0.0512009,0.0093002c0.0477982,0,0.0965996-0.0033989,0.1455002-0.0102997   l1.8104973-0.2640991c2.2813187-0.3330002,4.1016006-2.0785999,4.5303192-4.3432999   c0.47258-2.4990005-0.8262177-4.951601-3.1582184-5.9638004l-1.9422989-0.8443003   c0.2271004-0.7224998,0.3505173-1.4800997,0.3505173-2.2690001c0-4.2157998-3.429718-7.6459999-7.6455193-7.6459999   c-2.7926979,0-5.2930984,1.4892001-6.6330986,3.8607001l-4.2535992-1.849   c-1.2452011-0.5352001-2.6270008-0.4521003-3.7940006,0.2284999c-0.7733002,0.4513998-1.3416996,1.1244001-1.6952,1.9144001   L11.8174505,1.8479848c-1.3076-0.5649999-2.7959003-0.4346-3.9864001,0.3476   C6.6435509,2.9763849,5.9346509,4.2907848,5.9346509,5.711185C5.9346509,7.383585,6.9238505,8.8952847,8.4531507,9.5617847z    M42.2627487,5.8054848c3.1133003,0,5.6455193,2.5326996,5.6455193,5.6459999c0,0.5089998-0.0719185,0.9972-0.1989174,1.4656   L37.4772682,8.469285C38.4886513,6.8283849,40.2748489,5.8054848,42.2627487,5.8054848z M28.5898495,7.7732849   c0.6133003-0.3569999,1.339901-0.4004002,1.9922009-0.1206999l5.1470985,2.2375002   c0.0016022,0.0005999,0.0026016,0.0021,0.0042992,0.0028c0.0012016,0.0004997,0.0025024,0.0001993,0.0037003,0.0007   l14.9659996,6.5056c1.4696999,0.6376991,2.2881203,2.1830997,1.9902,3.7574005   c-0.2705002,1.4266987-1.4168968,2.5262985-2.8543968,2.7357998l-0.7953033,0.1159992l0.494503-1.1403999   c0.0312004-0.0723991,0.0335007-0.1474991,0.0468979-0.221899c0.0923004-0.5098019-0.2164993-0.9396-0.5634995-1.0921001   l-9.2578011-4.0532017l-0.0390968-0.0199986c0,0-0.001503-0.0003014-0.0023003-0.0006008   c-0.0209999-0.0105-0.0424004-0.0208988-0.0534019-0.0252991l-10.8583984-4.7573004   c-0.7998009-0.3457003-1.3164005-1.1372004-1.3164005-2.0171003c0-0.0917997,0.0088005-0.1841002,0.0137005-0.25   C27.5830498,8.7346849,27.9775505,8.1306849,28.5898495,7.7732849z M8.9297504,3.8669848   c0.6366997-0.418,1.3984003-0.4829001,2.0928001-0.1841002l14.4934998,6.2963004   c0.1105995,1.5559998,1.0604,2.9313993,2.4967003,3.5518999l10.799799,4.7298994   c0.0166016,0.0083008,0.0732002,0.0367012,0.0908012,0.0445004l0.0014,0.0004997   c0.1933975,0.1020012,0.3928986,0.1891003,0.6135178,0.2688007l7.7876816,3.4112988l-5.1458015,11.8702011   c-0.1610985,0.3719978-0.0809975,0.8045998,0.2012024,1.0951996l7.9209175,8.1390991   c0.7148819,0.7334023,1.2958794,1.5820999,1.7265816,2.5235023l5.5410004,12.1152   c0.3827972,0.8428001,0.3154182,1.7724991-0.185585,2.5497971c-0.4989967,0.7754021-1.314415,1.2202034-2.2373161,1.2202034   c-0.5252991,0-1.0293007-0.153801-1.4676819-0.4507027c-0.4385185-0.2900009-0.7793198-0.6987-0.9834175-1.1751976   l-5.9325829-14.1138c-0.1211166-0.2837029-0.304718-0.5298004-0.5303192-0.7182999l-8.6454964-7.5312004   c-0.3106003-0.2705002-0.7559013-0.3223-1.1191826-0.1328011c-0.3652191,0.1898994-0.5761185,0.5844002-0.5322189,0.9930992   l0.4961014,4.6319008c0.1415977,1.3735008-0.1162033,2.732399-0.7490005,3.9350014l-6.8360004,13.2157974   c-0.4257011,0.830101-1.2744007,1.3462029-2.2138004,1.3462029c-1.5450001,0-2.5019989-1.2988014-2.5019989-2.5019035   c0-0.3857994,0.0966988-0.7724991,0.2852001-1.141098l7.1327991-13.7285995   c0.3554993-0.6831017,0.4354992-1.4668007,0.2236004-2.2119026l-1.4385014-4.971199   c-1.1297989-3.972599-0.5985985-8.2972984,1.4952011-12.1771984l2.607399-4.8320007   c0.2728004-0.5058002,0.0116005-1.1760006-0.4785004-1.3911991L9.2539501,7.7292848   C8.4521503,7.3796849,7.9346504,6.5876846,7.9346504,5.711185C7.9346504,4.954885,8.2978506,4.2829847,8.9297504,3.8669848z"/><path d="M57.7930489,15.2605848c0,0.5522003,0.4472198,0.999999,1,0.999999c0.5527,0,1-0.4477987,1-0.999999   c0-0.5064001,0.2118988-0.7300005,0.6903992-1.1875c0.5527-0.5278997,1.3096008-1.2510004,1.3096008-2.6337996   c0-2.9326-3.517601-2.8993006-1.3096008-5.0059004c0.5527-0.5272999,1.3096008-1.2495003,1.3096008-2.6313   c0-0.5523002-0.4473-1-1-1c-0.5527802,0-1,0.4476998-1,1c0,1.1884999-2,1.5207-2,3.8154001   c0,1.3828001,0.7568016,2.1058998,1.3095016,2.6337996C61.2659492,12.3197851,57.7930489,12.3733845,57.7930489,15.2605848z"/><path d="M20.6963501,33.4465866c0.4785004,0.4574966,0.6904011,0.6810989,0.6904011,1.1875c0,0.5521965,0.4473,1,1,1   c0.5526981,0,1-0.4478035,1-1c0-2.896801-3.4791012-2.9355011-1.3096008-5.0054016   c0.5527992-0.5272999,1.3096008-1.2495003,1.3096008-2.6313c0-0.5522995-0.4473019-1-1-1c-0.5527,0-1,0.4477005-1,1   c0,0.5044003-0.2119007,0.727499-0.6904011,1.1840992C18.926651,29.8697853,18.9255505,31.7555847,20.6963501,33.4465866z"/><path d="M6.3613505,25.0236855l3.1034999,1.6973c1.5949001,2.6152992,1.5771999,3.6239986,2.5752001,3.6239986   c0.3653002,0,0.7022171-0.1996994,0.8769999-0.5199986l1.6982164-3.1040001l3.1025829-1.6973   c0.3213005-0.1753006,0.5205002-0.5117016,0.5205002-0.8774014s-0.1991997-0.7020988-0.5205002-0.8773994l-3.1025829-1.6973   l-1.6982164-3.1040001c-0.1747828-0.3202991-0.5116997-0.5200005-0.8769999-0.5200005   c-0.3652,0-0.7020998,0.1992016-0.8768997,0.5200005l-1.6983004,3.1040001   c-2.6155834,1.5942993-3.6239996,1.5767002-3.6239996,2.5746994C5.8408508,24.5119839,6.0400505,24.8483849,6.3613505,25.0236855z    M11.0781507,22.7883854l0.9618998-1.7567997l0.9610004,1.7567997c0.2382994,0.4347992,0.5716,0.4445,2.1532993,1.3578987   c-1.5925999,0.9196014-1.9159994,0.9249001-2.1532993,1.3579006l-0.9610004,1.7567997   c-0.9091997-1.5739002-0.9268999-1.9179001-1.3592997-2.1542988l-1.7559004-0.9604015   C10.5247507,23.222784,10.8418503,23.2207851,11.0781507,22.7883854z"/><path d="M52.876049,27.8430843l-1.3915977,2.5433998l-2.5430031,1.3910999   c-0.3213005,0.1753006-0.5205002,0.5117989-0.5205002,0.8775024c0,0.3656998,0.1991997,0.7020988,0.5205002,0.8773994   l2.5438995,1.3906975l1.3907013,2.5433998c0.1748009,0.3203011,0.5116997,0.5200005,0.8768997,0.5200005   c0.3653183,0,0.7022018-0.1991997,0.8769989-0.5200005l1.3916016-2.5433998l2.5429001-1.3906975   c0.3213005-0.1753006,0.5205994-0.5116997,0.5205994-0.8773994c0-0.3652-0.1992989-0.7017021-0.5205994-0.8775024   l-2.5429001-1.3910999l-1.3916016-2.5433998C54.2803497,27.2014847,53.2256508,27.2024841,52.876049,27.8430843z    M56.001049,32.6550865l-1.1953011,0.6537971c-0.1679993,0.0918007-0.3056984,0.2294998-0.39748,0.3975029l-0.6553192,1.1961975   l-0.6543007-1.1961975c-0.0917969-0.1675034-0.2294998-0.3057022-0.3973808-0.3975029l-1.1963196-0.6537971l1.1963196-0.6543007   c0.167881-0.0918007,0.305584-0.2300014,0.3973808-0.397501l0.6543007-1.1963005l0.6553192,1.1963005   c0.0917816,0.1674995,0.2294807,0.3057003,0.39748,0.397501L56.001049,32.6550865z"/><path d="M60.3642654,24.3469849c-0.5527153,0-1,0.4477005-1,1c0,0.5522003,0.4472847,1,1,1h0.8583832c0.5527992,0,1-0.4477997,1-1   c0-0.5522995-0.4472008-1-1-1H60.3642654z"/><path d="M51.298851,4.8020849h0.859417c0.552681,0,1-0.4478002,1-1c0-0.5523002-0.447319-1-1-1h-0.859417   c-0.5527,0-1,0.4476998-1,1C50.298851,4.3542848,50.746151,4.8020849,51.298851,4.8020849z"/><path d="M23.111351,3.9299848h0.8583984c0.5528011,0,1-0.4477999,1-1c0-0.5523-0.4471989-1-1-1H23.111351c-0.5527,0-1,0.4477-1,1   C22.111351,3.4821849,22.558651,3.9299848,23.111351,3.9299848z"/><path d="M3.7773507,13.3469849h0.8594c0.5527,0,1-0.4477997,1-1c0-0.5523005-0.4473-1-1-1h-0.8594c-0.5527,0-1,0.4476995-1,1   C2.7773507,12.8991852,3.2246506,13.3469849,3.7773507,13.3469849z"/><path d="M21.5273495,20.4602852h0.8594017c0.5526981,0,1-0.4477997,1-1c0-0.5522995-0.4473019-1-1-1h-0.8594017   c-0.5527,0-1,0.4477005-1,1C20.5273495,20.0124855,20.9746494,20.4602852,21.5273495,20.4602852z"/></g><text x="0" y="80" fill="#000000" font-size="5px" font-weight="bold" font-family="'Helvetica Neue', Helvetica, Arial-Unicode, Arial, Sans-serif">Created by Vectors Point</text><text x="0" y="85" fill="#000000" font-size="5px" font-weight="bold" font-family="'Helvetica Neue', Helvetica, Arial-Unicode, Arial, Sans-serif">from the Noun Project</text></svg>