<svg xmlns="http://www.w3.org/2000/svg" xmlns:xlink="http://www.w3.org/1999/xlink" version="1.1" x="0px" y="0px" viewBox="0 0 100 125" style="enable-background:new 0 0 100 100;" xml:space="preserve"><g><path d="M84,43.9998817H70v-4c0-0.5522461-0.4477539-1-1-1h-3.1377563C65.9442139,38.3419228,66,37.6761513,66,36.9998817   c0-7.3174438-5.0233765-13.7019653-12.050354-15.4977417C53.701416,19.533268,52.0351563,17.9998817,50,17.9998817   c-2.0350952,0-3.701355,1.5333252-3.949646,3.5021362C39.0252075,23.295475,34,29.6810951,34,36.9998817   c0,0.6762695,0.0557861,1.342041,0.1377563,2H31c-0.5522461,0-1,0.4477539-1,1v4H16c-3.3085938,0-6,2.6914063-6,6v33.9999962   c0,3.3085938,2.6914063,6,6,6h68c3.3085938,0,6-2.6914063,6-6V49.9998817C90,46.691288,87.3085938,43.9998817,84,43.9998817z    M50,19.9998817c0.777832,0,1.4536133,0.4462891,1.7841797,1.0966797   c-0.0308228-0.0033569-0.0622559-0.0018921-0.0930786-0.0050659c-0.4963379-0.0508423-0.9960327-0.0752563-1.4967041-0.0810547   C50.1293335,21.0096474,50.0650635,20.9998817,50,20.9998817c-0.0712891,0-0.1417847,0.0106201-0.2130127,0.0115356   c-0.4932861,0.0063477-0.9859009,0.0297852-1.4758301,0.0799561c-0.0316162,0.0032349-0.0637817,0.00177-0.0953369,0.005188   C48.5463867,20.4461708,49.222168,19.9998817,50,19.9998817z M36,36.9998817   c0-6.6381836,4.7182617-12.4125977,11.2143555-13.7290039c1.3630371-0.2695313,2.7955322-0.3363647,4.1896362-0.2021484   c0.4651489,0.0448608,0.9265137,0.1121826,1.3804932,0.2019653C59.2832642,24.5892982,64,30.3627968,64,36.9998817   c0,0.6772461-0.046875,1.347168-0.140625,2h-27.71875C36.046875,38.3470497,36,37.6771278,36,36.9998817z M32,40.9998817h3.2998047   h29.4003906H68v3H32V40.9998817z M88,83.9998779c0,2.2055664-1.7944336,4-4,4h-8v-23c0-0.5522461-0.4477539-0.9999962-1-0.9999962   s-1,0.4477501-1,0.9999962v23H26v-23c0-0.5522461-0.4477539-0.9999962-1-0.9999962s-1,0.4477501-1,0.9999962v23h-8   c-2.2055664,0-4-1.7944336-4-4V49.9998817c0-2.2055664,1.7944336-4,4-4h15h38h15c2.2055664,0,4,1.7944336,4,4V83.9998779z"/><path d="M47.6157227,25.2303505C44.0244141,25.9578896,41,28.2596474,39.3173828,31.5443153   c-0.2514648,0.4916992-0.0571289,1.0942383,0.434082,1.3461914c0.1459961,0.074707,0.3017578,0.1098633,0.4550781,0.1098633   c0.3637695,0,0.7138672-0.1987305,0.8911133-0.5439453c1.4033203-2.7407227,3.9238281-4.659668,6.9155273-5.2661133   c0.5410156-0.109375,0.8911133-0.637207,0.78125-1.1787109S48.1557617,25.1180458,47.6157227,25.2303505z"/><path d="M76,31.2699013c5.144043,0,9.5498047-3.496582,10.7143555-8.503418   c0.0844727-0.3642578-0.0410156-0.7451172-0.3256836-0.987793c-0.2836914-0.2421875-0.6791992-0.3051758-1.0263672-0.1645508   C84.2963867,22.0491982,83.1655273,22.2699013,82,22.2699013c-4.9624023,0-9-4.0375977-9-9   c0-0.6894531,0.0786133-1.3769531,0.2338867-2.043457c0.0844727-0.3632813-0.0405273-0.7436523-0.3237305-0.9863281   s-0.6777344-0.3066406-1.0244141-0.1674805C67.7026367,11.7591591,65,15.7620888,65,20.2699013   C65,26.335331,69.9345703,31.2699013,76,31.2699013z M71.0107422,12.7796669C71.003418,12.9427528,71,13.1063271,71,13.2699013   c0,6.0654297,4.9345703,11,11,11c0.7363281,0,1.4619141-0.0722656,2.1713867-0.215332   C82.7275391,27.1971474,79.5825195,29.2699013,76,29.2699013c-4.9624023,0-9-4.0375977-9-9   C67,17.2039833,68.5283203,14.4232216,71.0107422,12.7796669z"/><path d="M70.5,50.9998817h-41c-0.5522461,0-1,0.4477539-1,1s0.4477539,1,1,1h41c0.5522461,0,1-0.4477539,1-1   S71.0522461,50.9998817,70.5,50.9998817z"/></g><text x="0" y="115" fill="#000000" font-size="5px" font-weight="bold" font-family="'Helvetica Neue', Helvetica, Arial-Unicode, Arial, Sans-serif">Created by Edwin PM</text><text x="0" y="120" fill="#000000" font-size="5px" font-weight="bold" font-family="'Helvetica Neue', Helvetica, Arial-Unicode, Arial, Sans-serif">from the Noun Project</text></svg>