<svg xmlns="http://www.w3.org/2000/svg" xmlns:xlink="http://www.w3.org/1999/xlink" xml:space="preserve" version="1.1" style="shape-rendering:geometricPrecision;text-rendering:geometricPrecision;image-rendering:optimizeQuality;" viewBox="0 0 308 352.5" x="0px" y="0px" fill-rule="evenodd" clip-rule="evenodd"><defs><style type="text/css">
   
    .fil0 {fill:black}
   
  </style></defs><g><path class="fil0" d="M233 86l37 -46c1,-2 1,-4 0,-7l-20 -31c-2,-1 -3,-2 -5,-2l-73 0c-1,0 -3,1 -4,2l-21 31c-1,2 -1,5 0,6 0,1 0,1 1,2l37 46c-11,2 -21,7 -31,13 -16,-11 -35,-16 -55,-16 -89,0 -131,106 -71,168 33,34 87,40 126,13 42,29 99,20 131,-19 46,-56 19,-142 -52,-160zm-71 -44l13 0 21 21 -17 0 -17 -21zm28 -11l19 -18 19 18 -38 0zm38 11l-19 19 -19 -19 38 0zm14 0l13 0 -17 21 -17 0 21 -21zm14 -11l-14 0 -21 -21 22 0 13 21zm-81 -21l21 0 -21 21 -14 0 14 -21zm21 74l-9 -11 43 0 -8 11 -26 0zm-97 10c71,0 114,80 73,139 -5,-3 -9,-6 -12,-10 17,-26 16,-59 -2,-83 -14,-19 -35,-30 -59,-30 -65,0 -97,78 -52,124 22,23 58,29 86,13 4,4 8,8 12,12 -36,21 -80,16 -109,-14 -55,-55 -16,-151 63,-151zm82 33c9,-5 18,-7 28,-7 54,0 82,65 46,105 -19,21 -49,27 -74,14 23,-34 23,-78 0,-112zm-27 26c10,18 10,41 0,60 -10,-19 -11,-42 0,-60zm-27 -26c-23,34 -23,78 0,112 -24,12 -53,7 -72,-12 -39,-38 -12,-107 44,-107 10,0 19,2 28,7zm30 127c-39,-27 -49,-81 -21,-122 5,3 8,7 12,11 -23,35 -12,80 23,102 0,0 0,0 0,0 30,19 70,12 93,-14 41,-47 8,-121 -55,-121 -12,0 -24,3 -34,8 -4,-4 -8,-7 -12,-11 14,-8 30,-13 46,-13 76,0 116,90 67,147 -29,34 -82,41 -119,13z"/></g><text x="0" y="297" fill="#000000" font-size="5px" font-weight="bold" font-family="'Helvetica Neue', Helvetica, Arial-Unicode, Arial, Sans-serif">Created by Chrystina Angeline</text><text x="0" y="302" fill="#000000" font-size="5px" font-weight="bold" font-family="'Helvetica Neue', Helvetica, Arial-Unicode, Arial, Sans-serif">from the Noun Project</text></svg>